<?xml version="1.0" standalone="no"?>
<!DOCTYPE svg PUBLIC "-//W3C//DTD SVG 20010904//EN"
 "http://www.w3.org/TR/2001/REC-SVG-20010904/DTD/svg10.dtd">
<svg version="1.0" xmlns="http://www.w3.org/2000/svg"
 width="120.000000pt" height="120.000000pt" viewBox="0 0 120.000000 120.000000"
 preserveAspectRatio="xMidYMid meet">
<metadata>
Created by potrace 1.14, written by Peter Selinger 2001-2017
</metadata>
<g transform="translate(0.000000,120.000000) scale(0.100000,-0.100000)"
fill="#000000" stroke="none">
<path d="M660 1089 c-58 -5 -191 -15 -296 -23 -106 -8 -201 -19 -213 -25 -21
-12 -21 -16 -21 -355 l0 -344 71 -93 c112 -147 101 -139 188 -139 170 2 650
37 666 50 13 11 15 62 15 385 l0 373 -116 82 c-99 70 -163 104 -184 99 -3 -1
-52 -6 -110 -10z m213 -96 c56 -39 65 -49 50 -54 -10 -4 -148 -15 -306 -23
-287 -17 -289 -17 -320 4 -50 31 -92 69 -86 75 6 6 446 42 539 44 50 1 61 -3
123 -46z m134 -438 c2 -171 -1 -316 -6 -324 -12 -19 -646 -57 -667 -40 -19 16
-21 624 -2 635 14 9 524 42 613 40 l60 -1 2 -310z"/>
<path d="M762 748 c-18 -18 -15 -25 13 -32 l25 -6 0 -132 0 -132 -99 151 -99
151 -73 -6 c-41 -2 -80 -9 -86 -14 -22 -17 -15 -38 12 -38 l25 0 0 -190 0
-190 -25 -6 c-14 -3 -25 -13 -25 -21 0 -13 12 -15 77 -9 76 7 108 19 97 37 -3
5 -16 9 -30 9 l-24 0 0 140 c0 77 2 140 4 140 2 0 41 -59 86 -131 107 -169
124 -189 162 -189 16 0 38 5 49 10 18 10 19 23 19 221 0 202 1 211 20 216 11
3 20 12 20 19 0 18 -130 20 -148 2z"/>
</g>
</svg>
